<svg id="visual" viewBox="0 0 900 600" width="900" height="600" xmlns="http://www.w3.org/2000/svg" xmlns:xlink="http://www.w3.org/1999/xlink" version="1.1"><path d="M0 406L21.5 422.5C43 439 86 472 128.8 481.7C171.7 491.3 214.3 477.7 257.2 458.3C300 439 343 414 385.8 415.5C428.7 417 471.3 445 514.2 457.7C557 470.3 600 467.7 642.8 453C685.7 438.3 728.3 411.7 771.2 415.5C814 419.3 857 453.7 878.5 470.8L900 488L900 601L878.5 601C857 601 814 601 771.2 601C728.3 601 685.7 601 642.8 601C600 601 557 601 514.2 601C471.3 601 428.7 601 385.8 601C343 601 300 601 257.2 601C214.3 601 171.7 601 128.8 601C86 601 43 601 21.5 601L0 601Z" fill="#0066FF" stroke-linecap="round" stroke-linejoin="miter"></path></svg>